<svg viewBox="0 0 576 132" xmlns="http://www.w3.org/2000/svg" font-family="system-ui, sans-serif">
<rect x="0" y="0" width="576" height="132" fill="#ffffff"/>
<text x="313" y="24" fill="#2563eb" text-anchor="middle" font-size="12" font-weight="600">lo&#183;mid</text><text x="369" y="24" fill="#2563eb" text-anchor="middle" font-size="12" font-weight="600">hi</text>
<rect x="8" y="34" width="50" height="42" fill="#dc2626" fill-opacity="0.85" stroke="#dc2626" stroke-width="1.5"/><text x="33" y="61" fill="#ffffff" text-anchor="middle" font-size="15" font-weight="500">2</text><rect x="64" y="34" width="50" height="42" fill="#dc2626" fill-opacity="0.85" stroke="#dc2626" stroke-width="1.5"/><text x="89" y="61" fill="#ffffff" text-anchor="middle" font-size="15" font-weight="500">5</text><rect x="120" y="34" width="50" height="42" fill="#dc2626" fill-opacity="0.85" stroke="#dc2626" stroke-width="1.5"/><text x="145" y="61" fill="#ffffff" text-anchor="middle" font-size="15" font-weight="500">8</text><rect x="176" y="34" width="50" height="42" fill="#dc2626" fill-opacity="0.85" stroke="#dc2626" stroke-width="1.5"/><text x="201" y="61" fill="#ffffff" text-anchor="middle" font-size="15" font-weight="500">12</text><rect x="232" y="34" width="50" height="42" fill="#dc2626" fill-opacity="0.85" stroke="#dc2626" stroke-width="1.5"/><text x="257" y="61" fill="#ffffff" text-anchor="middle" font-size="15" font-weight="500">16</text><rect x="288" y="34" width="50" height="42" fill="#16a34a" fill-opacity="0.85" stroke="#16a34a" stroke-width="1.5"/><text x="313" y="61" fill="#ffffff" text-anchor="middle" font-size="15" font-weight="500">23</text><rect x="344" y="34" width="50" height="42" fill="#f8fafc" stroke="#1e293b" stroke-width="1.5"/><text x="369" y="61" fill="#1e293b" text-anchor="middle" font-size="15" font-weight="500">38</text><rect x="400" y="34" width="50" height="42" fill="#dc2626" fill-opacity="0.85" stroke="#dc2626" stroke-width="1.5"/><text x="425" y="61" fill="#ffffff" text-anchor="middle" font-size="15" font-weight="500">56</text><rect x="456" y="34" width="50" height="42" fill="#dc2626" fill-opacity="0.85" stroke="#dc2626" stroke-width="1.5"/><text x="481" y="61" fill="#ffffff" text-anchor="middle" font-size="15" font-weight="500">72</text><rect x="512" y="34" width="50" height="42" fill="#dc2626" fill-opacity="0.85" stroke="#dc2626" stroke-width="1.5"/><text x="537" y="61" fill="#ffffff" text-anchor="middle" font-size="15" font-weight="500">91</text>
<text x="33" y="94" fill="#94a3b8" text-anchor="middle" font-size="11">0</text><text x="89" y="94" fill="#94a3b8" text-anchor="middle" font-size="11">1</text><text x="145" y="94" fill="#94a3b8" text-anchor="middle" font-size="11">2</text><text x="201" y="94" fill="#94a3b8" text-anchor="middle" font-size="11">3</text><text x="257" y="94" fill="#94a3b8" text-anchor="middle" font-size="11">4</text><text x="313" y="94" fill="#94a3b8" text-anchor="middle" font-size="11">5</text><text x="369" y="94" fill="#94a3b8" text-anchor="middle" font-size="11">6</text><text x="425" y="94" fill="#94a3b8" text-anchor="middle" font-size="11">7</text><text x="481" y="94" fill="#94a3b8" text-anchor="middle" font-size="11">8</text><text x="537" y="94" fill="#94a3b8" text-anchor="middle" font-size="11">9</text>
<text x="8" y="122" fill="#1e293b" font-size="13">arr[mid] = 23, found at index 5. Three probes for ten elements: O(log n)</text>
</svg>